<?xml version="1.0" encoding="UTF-8"?>
<svg version="1.1" viewBox="0 0 2048 1789" width="1280" height="1280" xmlns="http://www.w3.org/2000/svg">
<path transform="translate(0)" d="m0 0h2048v1789h-2048z" fill="#FCFCFC"/>
<path transform="translate(545,285)" d="m0 0h10l12 2 13 5 33 17 23 13 27 14 46 25 30 16 46 25 19 10 12 7 5-1 9-11 16-16 8-7 12-10 16-11 13-8 16-8 21-9 19-6 23-5 22-3h89l28 4 17 4 26 9 20 9 15 8 24 16 11 9 10 9 17 17 7 8 8 10 10 14 13 23 10 21 9 25 7 28 4 24 1 10v42l-2 25-5 24-6 21-8 22-8 18-12 21-11 16-10 13-11 13-14 14-5 6-7 4-11 9-18 12-16 9-20 9-30 10-16 4-28 4h-73l-25-2-24-4-27-8-16-6-25-12-11-7-17-12-13-11-16-15-11-11-4-5-3-1-2 5-21 33-22 33-15 23-10 13-12 10-17 8-10 2h-22l-12-3-19-9-23-13-28-15-22-12-19-10-22-12-25-13-16-9-34-18-56-30-26-14-15-9-9-7-9-11-6-12-5-19v-16l6-21 17-39 18-42 10-24 17-39 12-28 13-30 31-73 11-25 10-23 10-14 8-8 15-10 14-6z" fill="#9CED08"/>
<path transform="translate(1310,298)" d="m0 0h9l21 5 36 12 49 16 81 27 55 18 93 31 17 6 12 7 11 9 9 12 7 15 4 14v15l-7 33-18 76-12 50-13 56-13 55-18 77-6 22-6 15-7 12-9 10-10 9-19 10-11 3h-17l-17-4-192-64-50-16-44-15-15-5v-3l12-13 10-10 8-10 12-16 11-17 6-10 12-26 11-33 5-21 2-11 2-25v-42l-3-23-5-24-7-24-10-25-10-19-11-19-12-16-18-20-16-16 10-24 7-16 9-16 8-10 10-8 12-7 15-5z" fill="#30C7DD"/>
<path transform="translate(545,285)" d="m0 0h10l12 2 13 5 33 17 23 13 27 14 46 25 30 16 46 25 19 10 12 7 3 2-10 14-8 13-10 17-8 16-10 25-5 17-3 16-3 24-1 17v48l4 25 4 16 8 29 12 26 9 17 12 18 8 11 2 4-15 24-9 14-22 33-15 23-10 13-12 10-17 8-10 2h-22l-12-3-19-9-23-13-28-15-22-12-19-10-22-12-25-13-16-9-34-18-56-30-26-14-15-9-9-7-9-11-6-12-5-19v-16l6-21 17-39 18-42 10-24 17-39 12-28 13-30 31-73 11-25 10-23 10-14 8-8 15-10 14-6z" fill="#FDCA08"/>
<path transform="translate(617,998)" d="m0 0h20l26 2 24 5 33 11 17 9 9 5 12 11 7 8 5 11 2 11v366l-8 3-22 4-12 1h-12l-21-2-13-4-10-7-6-7-5-11-2-17v-67l-10 3-12 3-18 2h-26l-19-2-19-4-17-5-18-8-20-12-10-9-8-7-12-15-8-13-9-19-5-15-5-23-2-17v-37l4-26 5-19 5-13 8-16 6-10 9-12 12-13 11-9 15-10 15-8 21-8 25-6 23-3z" fill="#3B3C30"/>
<path transform="translate(859,1006)" d="m0 0h17l18 3 10 3 10 6 7 9 4 8 2 9 1 10 1 158 4 15 6 9 7 6 11 5 13 3h18l17-3 11-4h2l1-231 24-4 19-2h12l18 2 14 4 10 6 7 9 4 9 2 9v227l-4 13-7 11-7 7-14 9-21 10-15 5-24 6-26 4-11 1h-39l-19-2-22-4-21-6-16-7-16-9-13-10-10-10-10-14-8-16-6-17-3-17-1-11v-202l12-3 21-3z" fill="#3B3C30"/>
<path transform="translate(1351,1009)" d="m0 0h216l8 8 5 7 6 14 3 14v15l-5 16-9 16-10 13-12 14-14 17-11 13-9 11-10 12-9 11-10 12-9 11-11 13-9 11-2 3 1 1h126l4 8 4 13 2 11v24l-2 9-5 9-9 8-11 4h-227l-5-4-8-10-7-14-3-10v-22l4-12 8-15 8-11 11-13 9-11 9-10 9-11 13-15 24-28 22-26 9-11 7-9h-120l-5-12-5-16-1-18 2-14 4-10 6-8 14-7z" fill="#3B3C30"/>
<path transform="translate(1016,1620)" d="m0 0h114l119 2 79 3 58 3 42 3 48 5 34 5 12 3 1 3-10 5-30 5-33 4-48 4-75 4-80 3-81 2-94 1h-57l-153-2-47-1-99-4-65-3-46-4-42-5-13-2-8-3-3-3 1-4 3-2 17-3 23-3 48-5 40-3 88-4 106-3z" fill="#E4E4E4"/>
<path transform="translate(1144,461)" d="m0 0h19l10 4 11 8 8 13 3 7v20l-5 12-6 9-19 19-12 13h-2l-2 4-54 54-7 8-58 58-7 8-15 15-14 9-6 2h-15l-10-3-9-6-67-67-8-7-10-10-7-11-3-8-1-6v-9l3-12 5-10 8-9 10-6 6-2h20l14 7 12 11 9 9 4 3v2l3 1 7 8 9 9 9 7 4 1 10-6 12-13h2l2-4 27-27 7-8 18-18 7-8 3-3h2v-2h2v-2h2l2-4 34-34 7-8 12-11z" fill="#FCFCFC"/>
<path transform="translate(1209,1007)" d="m0 0h32l16 3 10 4 10 9 7 14 2 20v266l-1 3-8 3-15 3-9 1h-32l-16-3-14-7-7-6-5-9-4-12v-283l1-1z" fill="#3B3D30"/>
<path transform="translate(546,445)" d="m0 0h96l21 3 16 6 12 7 6 5v2l3 1 7 10 7 16 3 13 2 21v35l-2 18-5 16-8 15-9 10-7 6-14 8-17 5-16 2h-10v12l-4 8-5 2h-33l-19-1-4-4-2-15v-42l1-18 2-7 3-2 51-1 10-2 6-3 9-8 5-10v-15l-4-9-6-9-11-6-5-1-79-1-7-3-8-6-7-9-3-7v-16l4-11 5-6 11-7z" fill="#FCFCFC"/>
<path transform="translate(1057,324)" d="m0 0h28l28 4 17 4 26 9 20 9 15 8 24 16 11 9 10 9 17 17 7 8 8 10 10 14 13 23 10 21 9 25 7 28 4 24 1 10v42l-2 25-5 24-6 21-8 22-8 18-12 21-11 16-10 13-11 13-14 14-5 6-7 4-11 9-18 12-16 9-20 9-30 10-16 4-28 4-13-1v-1l10-1 1-3 31-12 23-11 15-9 14-10 11-9 14-12 12-12 2-3h2l2-4 10-12 8-11 9-14 12-22 8-18 7-19 7-27 3-17 2-21v-49l-4-30-6-24-7-20-8-20-12-23-12-19-10-13-9-11v-2h-2l-7-8-10-10-8-6v-2l-5-2-12-9-13-9-9-6-16-8-15-8-17-6-12-3-16-3-14-2v-1z" fill="#7CBE08"/>
<path transform="translate(1643,405)" d="m0 0 8 1 20 7 12 7 11 9 9 12 7 15 4 14v15l-7 33-18 76-12 50-13 56-13 55-18 77-6 22-6 15-7 12-9 10-10 9-19 10-11 3h-17l-17-4-18-6 1-3 18-1 11-5 15-9 12-10 9-13 7-15 5-14 10-38 7-29 6-26 9-34 4-18 12-45 5-21 12-48 18-76 4-15 1-8v-9l-3-19-6-16-7-10-1-3h-2v-2l-4-2-6-5-7-3z" fill="#29ABC0"/>
<path transform="translate(1402,438)" d="m0 0h56l11 2 6 3 5 5 1 3v24l-5 73-7 90-3 10-5 6-9 3-7 1h-24l-17-3-8-7-3-8-3-39-5-79-3-53v-17l3-6 8-6z" fill="#FCFCFC"/>
<path transform="translate(618,1086)" d="m0 0h21l13 2 9 4 1 1v148l-8 4-13 4-6 1h-20l-19-5-14-7-12-12-8-16-4-14-2-13v-29l4-20 5-13 7-11 6-7 11-8 11-5 11-3z" fill="#FCFBF8"/>
<path transform="translate(1219,861)" d="m0 0h23l15 4 10 5 12 11 6 10 4 9 2 8v23l-3 12-6 11-9 10-9 7-14 6-8 2h-22l-11-3-9-4-10-6-9-9-6-10-4-11-1-4v-26l4-12 6-10 9-10 10-7 3-2 10-3z" fill="#3B3C30"/>
<path transform="translate(574,686)" d="m0 0h44l10 2 2 5 1 17v36l-3 5-3 2-48 1-8-1-3-3-2-9v-43l2-7 5-4z" fill="#FCFCFC"/>
<path transform="translate(1414,688)" d="m0 0h36l10 3 7 6 3 8v19l-3 10-4 6-5 4-10 3-10 1h-13l-19-2-8-5-4-5-3-9v-22l5-10 5-4 5-2z" fill="#FBFBFB"/>
<path transform="translate(621,687)" d="m0 0 7 1 2 5 1 17v36l-3 5-3 2-48 1-8-1-1-2h54l5-2 2-4v-26l-1-20-1-7-3-3z" fill="#E4E4E4"/>
</svg>
